<svg xmlns="http://www.w3.org/2000/svg" xmlns:xlink="http://www.w3.org/1999/xlink" width="220.508" height="200" class="icon" p-id="9322" t="1576465679553" version="1.1" viewBox="0 0 1129 1024"><defs><style type="text/css"/></defs><path fill="#F28C13" d="M670.896552 459.034483m-459.034483 0a459.034483 459.034483 0 1 0 918.068965 0 459.034483 459.034483 0 1 0-918.068965 0Z" p-id="9323"/><path fill="#FFF" d="M900.413793 1006.344828c117.000828 0 211.862069-94.861241 211.862069-211.862069 0-104.999724-70.62069-194.206897-176.551724-194.206897 0-88.275862-52.965517-158.896552-158.896552-158.896552h-17.655172c-48.154483-86.929655-140.742621-141.241379-247.172414-141.241379-156.001103 0-282.482759 126.481655-282.482759 282.482759-117.000828 0-211.862069 94.861241-211.862069 211.862069s94.861241 211.862069 211.862069 211.862069h670.896552z" p-id="9324"/></svg>