<svg xmlns="http://www.w3.org/2000/svg" xmlns:xlink="http://www.w3.org/1999/xlink" width="200" height="200" class="icon" p-id="17389" t="1584161987444" version="1.1" viewBox="0 0 1024 1024"><defs><style type="text/css"/></defs><path fill="#e6e6e6" d="M864 960H160c-19.2 0-32 12.8-32 32s12.8 32 32 32h704c19.2 0 32-12.8 32-32s-12.8-32-32-32z m32-896c38.4 0 64 25.6 64 64v512c0 38.4-25.6 64-64 64h-768c-38.4 0-64-25.6-64-64v-512c0-38.4 25.6-64 64-64h768z m0-64h-768A128.3584 128.3584 0 0 0 0 128v512C0 710.4 57.6 768 128 768h768c70.4 0 128-57.6 128-128v-512C1024 57.6 966.4 0 896 0z" p-id="17390"/></svg>